<svg width="177" height="55" viewBox="0 0 177 55" fill="none" xmlns="http://www.w3.org/2000/svg">
<path fill-rule="evenodd" clip-rule="evenodd" d="M128.54 54.1359V41.8137C125.214 38.3461 111.493 24.0314 110.936 23.3318C110.317 22.5354 109.476 21.8831 108.413 21.3748C107.348 20.8665 106.018 20.6123 104.422 20.6123C102.242 20.6123 100.422 21.0952 98.9635 22.061C97.5047 23.0099 96.775 24.2383 96.775 25.7463C96.775 27.051 97.2644 28.1015 98.2426 28.8979C99.2208 29.6943 100.8 30.3466 102.98 30.8549L109.262 32.2782C112.901 33.1084 115.613 34.3877 117.398 36.116C119.183 37.8443 120.075 40.0893 120.075 42.8512C120.075 45.1894 119.389 47.2736 118.016 49.1035C116.659 50.9165 114.763 52.3398 112.326 53.3734C109.905 54.407 107.099 54.9238 103.907 54.9238C99.4781 54.9238 95.8654 53.9918 93.0674 52.128C91.4457 51.0376 84.8205 44.3848 79.4156 38.3127V54.1359H71.8978V48.7985H71.5889C71.0913 49.7812 70.3446 50.7471 69.3488 51.6959C68.3536 52.6448 67.0748 53.4327 65.5129 54.0596C63.9509 54.6866 62.0801 55 59.8998 55C57.3941 55 55.1285 54.5425 53.1031 53.6275C51.0777 52.6956 49.4729 51.3486 48.2886 49.5864C47.1214 47.8242 46.5379 45.6639 46.5379 43.1054C46.5379 40.9026 46.9669 39.0897 47.8252 37.6664C48.6834 36.2431 49.842 35.1163 51.3009 34.2861C52.7598 33.4558 54.3904 32.8289 56.1926 32.4052C57.9949 31.9817 59.8313 31.6597 61.7021 31.4394C64.0711 31.1684 65.9935 30.9481 67.4692 30.7786C68.9456 30.5923 70.0182 30.2957 70.6875 29.8891C71.3574 29.4824 71.692 28.8216 71.692 27.9067V27.7287C71.692 25.5091 71.0567 23.7893 69.7866 22.5693C68.5336 21.3494 66.6628 20.7393 64.1742 20.7393C61.5819 20.7393 59.5394 21.307 58.0464 22.4423C56.5703 23.5606 38.7535 41.386 38.1871 42.7584L38.169 42.7261C35.08 49.6135 28.0746 54.4211 19.9272 54.4211C10.7169 54.4211 2.966 48.2773 0.682464 39.9305C0.237381 38.9144 0 37.5686 0 35.8036C0 35.6405 0.00202584 35.4779 0.0060541 35.3158C0.00202584 35.1537 0 34.9911 0 34.828C0 33.1197 0.222369 31.8258 0.640207 30.8581C2.86897 22.4314 10.6592 16.2105 19.9272 16.2105C29.1951 16.2105 36.9853 22.4314 39.2141 30.8581C39.2989 31.0546 39.3757 31.2644 39.4442 31.4885C43.9555 26.408 50.4187 19.7701 51.5069 18.8077C53.1718 17.3336 55.0856 16.2662 57.2482 15.6054C59.411 14.9276 61.6851 14.5887 64.0711 14.5887C65.65 14.5887 67.3233 14.7751 69.0915 15.1479C70.8768 15.5037 72.5413 16.1645 74.0862 17.1303C75.6482 18.0961 76.927 19.4771 77.9222 21.2731C78.8025 22.8464 79.2937 24.8371 79.3956 27.2452C79.8592 29.1598 96.775 46.3671 98.2168 47.3498C99.6586 48.3156 101.538 48.7985 103.855 48.7985C106.378 48.7985 108.395 48.2817 109.905 47.2481C111.416 46.1976 112.171 44.9184 112.171 43.4103C112.171 42.1904 111.708 41.1653 110.781 40.335C109.871 39.5048 108.472 38.8778 106.584 38.4543L99.8901 37.0056C96.2001 36.1753 93.4706 34.8537 91.703 33.0406C89.9523 31.2277 89.0767 28.9317 89.0767 26.153C89.0767 23.8486 89.729 21.8323 91.0337 20.1039C92.3383 18.3757 94.1406 17.0286 96.4404 16.0628C98.7402 15.0801 101.375 14.5887 104.344 14.5887C108.618 14.5887 111.982 15.5037 114.437 17.3336C115.876 18.397 122.855 25.4237 128.54 31.6682V15.097H136.237V27.1632C136.701 29.0779 153.7 46.3671 155.142 47.3498C156.583 48.3156 158.462 48.7985 160.78 48.7985C163.303 48.7985 165.32 48.2817 166.83 47.2481C168.34 46.1976 169.096 44.9184 169.096 43.4103C169.096 42.1904 168.632 41.1653 167.706 40.335C166.796 39.5048 165.397 38.8778 163.509 38.4543L156.815 37.0056C153.125 36.1753 150.395 34.8537 148.628 33.0406C146.877 31.2277 146.002 28.9317 146.002 26.153C146.002 23.8486 146.654 21.8323 147.959 20.1039C149.263 18.3757 151.065 17.0286 153.365 16.0628C155.665 15.0801 158.3 14.5887 161.269 14.5887C165.543 14.5887 168.907 15.5037 171.362 17.3336C173.816 19.1467 175.438 21.5781 176.228 24.628L169.25 25.848C168.959 24.9669 168.495 24.1282 167.86 23.3318C167.242 22.5354 166.401 21.8831 165.337 21.3748C164.273 20.8665 162.943 20.6123 161.346 20.6123C159.166 20.6123 157.347 21.0952 155.888 22.061C154.429 23.0099 153.7 24.2383 153.7 25.7463C153.7 27.051 154.189 28.1015 155.167 28.8979C156.146 29.6943 157.725 30.3466 159.904 30.8549L166.187 32.2782C169.825 33.1084 172.537 34.3877 174.322 36.116C176.107 37.8443 177 40.0893 177 42.8512C177 45.1894 176.313 47.2736 174.94 49.1035C173.584 50.9165 171.688 52.3398 169.25 53.3734C166.83 54.407 164.024 54.9238 160.831 54.9238C156.403 54.9238 152.79 53.9918 149.992 52.128C148.365 51.0341 141.675 44.3148 136.237 38.204V41.3453V54.1359H128.54ZM132.427 9.07349C131.088 9.07349 129.938 8.63292 128.977 7.75187C128.033 6.85381 127.561 5.78635 127.561 4.54944C127.561 3.29559 128.033 2.22813 128.977 1.34704C129.938 0.449014 131.088 0 132.427 0C133.766 0 134.907 0.449014 135.851 1.34704C136.812 2.22813 137.293 3.29559 137.293 4.54944C137.293 5.78635 136.812 6.85381 135.851 7.75187C134.907 8.63292 133.766 9.07349 132.427 9.07349ZM67.032 47.6548C65.5211 48.485 63.7018 48.9002 61.5737 48.9002C59.394 48.9002 57.6001 48.4258 56.1926 47.4769C54.7852 46.5111 54.0815 45.0878 54.0815 43.207C54.0815 41.8515 54.4419 40.7671 55.1628 39.9538C55.9009 39.1235 56.8792 38.4881 58.0978 38.0476C59.3337 37.607 60.6981 37.2936 62.1915 37.1072C62.8268 37.0225 63.6163 36.9208 64.5599 36.8022C65.5041 36.6666 66.474 36.5227 67.4692 36.3702C68.465 36.2007 69.3488 36.0058 70.1213 35.7856C70.9108 35.5484 71.4429 35.2942 71.7178 35.0231V40.0555C71.7178 41.5974 71.314 43.0461 70.5075 44.4016C69.7181 45.7401 68.5594 46.8246 67.032 47.6548ZM19.9272 21.4211C25.26 21.4211 29.9112 24.2115 32.4739 28.3725C31.3309 28.4923 30.0831 28.6928 28.7512 28.9068C26.0914 29.3343 23.0956 29.8158 19.9272 29.8158C16.7587 29.8158 13.7629 29.3343 11.1031 28.9068C9.77116 28.6928 8.52343 28.4923 7.38043 28.3725C9.94306 24.2115 14.5943 21.4211 19.9272 21.4211ZM34.3144 37.5637C34.458 36.8323 34.5451 36.0814 34.5712 35.3158C34.5499 34.6895 34.4877 34.0731 34.3872 33.4692C34.319 33.4693 34.245 33.4703 34.1652 33.4725C33.017 33.5043 31.6525 33.7223 29.6682 34.0393H29.6681C29.3051 34.0973 28.9213 34.1587 28.5142 34.2228C26.0849 34.6054 23.1192 35.0263 19.9272 35.0263C16.7351 35.0263 13.7694 34.6054 11.3401 34.2228C10.9339 34.1588 10.5509 34.0976 10.1886 34.0397L10.1862 34.0393C8.20184 33.7223 6.8373 33.5043 5.68917 33.4725C5.60926 33.4703 5.53536 33.4693 5.46714 33.4692C5.3666 34.0731 5.30443 34.6895 5.28312 35.3158C5.30916 36.0814 5.3963 36.8323 5.53994 37.5637C5.66539 37.5767 5.82068 37.5879 6.0105 37.5941C7.29955 37.6361 8.95919 37.4322 11.517 37.1167C13.8923 36.8237 16.81 36.4737 19.9272 36.4737C23.0443 36.4737 25.962 36.8237 28.3373 37.1167C30.8951 37.4322 32.5548 37.6361 33.8438 37.5941C34.0336 37.5879 34.1889 37.5767 34.3144 37.5637ZM11.8353 42.3285C10.3546 42.5116 8.96915 42.6828 7.70524 42.7627C10.3247 46.6437 14.8124 49.2105 19.9272 49.2105C25.0419 49.2105 29.5296 46.6437 32.1491 42.7627C30.8852 42.6828 29.4997 42.5116 28.0191 42.3285H28.019C25.5463 42.0228 22.8081 41.6842 19.9272 41.6842" fill="white"/>
</svg>
