<svg width="17" height="16" viewBox="0 0 17 16" fill="none" xmlns="http://www.w3.org/2000/svg">
<path fill-rule="evenodd" clip-rule="evenodd" d="M0 8C0 7.71589 0.111929 7.44342 0.311164 7.24252C0.5104 7.04163 0.78062 6.92877 1.06238 6.92877H13.3711L8.80927 2.33102C8.60978 2.12987 8.49771 1.85706 8.49771 1.57259C8.49771 1.28812 8.60978 1.0153 8.80927 0.814154C9.00875 0.613005 9.27932 0.5 9.56143 0.5C9.84355 0.5 10.1141 0.613005 10.3136 0.814154L16.6879 7.24157C16.7868 7.34107 16.8653 7.45929 16.9189 7.58943C16.9724 7.71958 17 7.8591 17 8C17 8.14091 16.9724 8.28042 16.9189 8.41057C16.8653 8.54071 16.7868 8.65893 16.6879 8.75844L10.3136 15.1858C10.1141 15.387 9.84355 15.5 9.56143 15.5C9.27932 15.5 9.00875 15.387 8.80927 15.1858C8.60978 14.9847 8.49771 14.7119 8.49771 14.4274C8.49771 14.1429 8.60978 13.8701 8.80927 13.669L13.3711 9.07124H1.06238C0.78062 9.07124 0.5104 8.95837 0.311164 8.75748C0.111929 8.55658 0 8.28411 0 8Z" fill="white"/>
</svg>
