<svg width="67" height="64" viewBox="0 0 67 64" fill="none" xmlns="http://www.w3.org/2000/svg">
<path fill-rule="evenodd" clip-rule="evenodd" d="M60.6924 21.3998C56.1741 11.078 45.6999 3.84699 33.5 3.84699C21.3001 3.84699 10.8259 11.078 6.30759 21.3998C9.08105 21.2085 12.6507 22.0503 16.7752 23.0227C21.6969 24.1833 27.4085 25.5301 33.5 25.5301C39.5915 25.5301 45.3031 24.1833 50.2248 23.0227C54.3493 22.0503 57.9189 21.2085 60.6924 21.3998ZM66.0709 25.087C62.5317 10.6944 49.292 0 33.5 0C17.7081 0 4.46831 10.6944 0.928992 25.087C0.3217 26.564 0 28.5611 0 31.2131C0 31.4761 0.00316465 31.7384 0.0094587 32C0.00316465 32.2616 0 32.5239 0 32.7869C0 35.4389 0.3217 37.436 0.928992 38.913C4.46831 53.3057 17.7081 64 33.5 64C49.292 64 62.5317 53.3057 66.0709 38.913C66.6782 37.436 67 35.4389 67 32.7869C67 32.5239 66.9968 32.2616 66.9905 32C66.9968 31.7384 67 31.4761 67 31.2131C67 28.5611 66.6782 26.564 66.0709 25.087ZM63.0586 32C63.0054 33.9534 62.7543 35.8585 62.3243 37.6969C62.1333 38.0886 61.9532 38.2755 61.8521 38.3579C61.5428 38.61 60.6259 39.0111 57.7408 38.61C55.8576 38.3482 53.8131 37.8656 51.3836 37.2919C50.1632 37.0039 48.845 36.6926 47.4019 36.3751C43.2933 35.471 38.5563 34.623 33.5 34.623C28.4437 34.623 23.7067 35.471 19.5981 36.3751C18.1549 36.6926 16.837 37.0037 15.6164 37.2919C13.1869 37.8656 11.1424 38.3482 9.2592 38.61C6.37411 39.0111 5.45723 38.61 5.14787 38.3579C5.04682 38.2755 4.86679 38.0886 4.67565 37.6969C4.24571 35.8585 3.99466 33.9534 3.94139 32C3.99466 30.0466 4.24571 28.1415 4.67565 26.3031C4.86679 25.9114 5.04682 25.7245 5.14787 25.6421C5.45723 25.39 6.37411 24.9889 9.2592 25.39C11.1424 25.6518 13.1869 26.1344 15.6164 26.7081C16.837 26.9963 18.1549 27.3074 19.5981 27.6249C23.7067 28.529 28.4437 29.377 33.5 29.377C38.5563 29.377 43.2933 28.529 47.4019 27.6249C48.845 27.3074 50.1625 26.9963 51.3829 26.7083C53.8124 26.1346 55.8576 25.6518 57.7408 25.39C60.6259 24.9889 61.5428 25.39 61.8521 25.6421C61.9532 25.7245 62.1333 25.9114 62.3243 26.3031C62.7543 28.1415 63.0054 30.0466 63.0586 32ZM6.30759 42.6002C9.08105 42.7915 12.6507 41.9499 16.7752 40.9773C21.6969 39.8167 27.4085 38.4699 33.5 38.4699C39.5915 38.4699 45.3031 39.8167 50.2248 40.9773C54.3493 41.9499 57.9189 42.7915 60.6924 42.6002C56.1741 52.9221 45.6999 60.153 33.5 60.153C21.3001 60.153 10.8259 52.9221 6.30759 42.6002Z" fill="#1E6141"/>
</svg>
