<svg width="16" height="14" viewBox="0 0 16 14" fill="none" xmlns="http://www.w3.org/2000/svg">
<path d="M5.026 13.5C11.064 13.5 14.367 8.49699 14.367 4.16599C14.367 4.02599 14.367 3.88399 14.361 3.74399C15.0041 3.27848 15.5591 2.70214 16 2.04199C15.3993 2.30684 14.7628 2.4814 14.111 2.55999C14.7975 2.14963 15.3117 1.50396 15.558 0.742991C14.913 1.12512 14.207 1.39336 13.471 1.53599C12.9762 1.00901 12.3214 0.659909 11.6081 0.542749C10.8948 0.425588 10.1627 0.546913 9.52534 0.887929C8.88796 1.22894 8.38081 1.77062 8.08245 2.42905C7.78409 3.08748 7.71118 3.82592 7.875 4.52999C6.56974 4.46454 5.29282 4.12546 4.12704 3.53473C2.96127 2.94401 1.93268 2.11484 1.108 1.10099C0.68934 1.82407 0.561574 2.67939 0.750646 3.49326C0.939718 4.30712 1.43145 5.01852 2.126 5.48299C1.60554 5.46531 1.09652 5.32555 0.64 5.07499V5.11999C0.640897 5.87747 0.903307 6.61141 1.38287 7.19775C1.86244 7.78409 2.52975 8.18686 3.272 8.33799C2.99026 8.41561 2.69923 8.4543 2.407 8.45299C2.20098 8.45362 1.99538 8.43453 1.793 8.39599C2.00279 9.04805 2.41127 9.61816 2.96125 10.0265C3.51122 10.4348 4.17513 10.6608 4.86 10.673C3.69656 11.5868 2.2594 12.0824 0.78 12.08C0.519321 12.0811 0.258823 12.0661 0 12.035C1.50151 12.9923 3.2453 13.5005 5.026 13.5Z" fill="#358F64"/>
</svg>
