<svg width="177" height="56" viewBox="0 0 177 56" fill="none" xmlns="http://www.w3.org/2000/svg">
<path d="M18.7446 55.9224C14.9747 55.9224 11.6848 55.0684 8.87487 53.3604C6.06493 51.6525 3.8833 49.2631 2.32998 46.1922C0.77666 43.1214 0 39.533 0 35.427C0 31.3038 0.77666 27.6981 2.32998 24.61C3.8833 21.5219 6.06493 19.1238 8.87487 17.4159C11.6848 15.708 14.9747 14.854 18.7446 14.854C22.5144 14.854 25.8043 15.708 28.6143 17.4159C31.4242 19.1238 33.6058 21.5219 35.1591 24.61C36.7125 27.6981 37.4891 31.3038 37.4891 35.427C37.4891 39.533 36.7125 43.1214 35.1591 46.1922C33.6058 49.2631 31.4242 51.6525 28.6143 53.3604C25.8043 55.0684 22.5144 55.9224 18.7446 55.9224ZM18.7707 49.427C21.2142 49.427 23.2387 48.7887 24.8444 47.512C26.4501 46.2354 27.6369 44.536 28.4048 42.414C29.1902 40.2921 29.5829 37.9544 29.5829 35.4011C29.5829 32.8651 29.1902 30.536 28.4048 28.4141C27.6369 26.2748 26.4501 24.5582 24.8444 23.2643C23.2387 21.9704 21.2142 21.3235 18.7707 21.3235C16.3099 21.3235 14.2679 21.9704 12.6447 23.2643C11.039 24.5582 9.84351 26.2748 9.05813 28.4141C8.29019 30.536 7.90623 32.8651 7.90623 35.4011C7.90623 37.9544 8.29019 40.2921 9.05813 42.414C9.84351 44.536 11.039 46.2354 12.6447 47.512C14.2679 48.7887 16.3099 49.427 18.7707 49.427Z" fill="#1E6141"/>
<path d="M57.9288 56C55.3807 56 53.0769 55.5342 51.0174 54.6026C48.958 53.6537 47.3261 52.2822 46.1218 50.488C44.935 48.6938 44.3416 46.4941 44.3416 43.8891C44.3416 41.6463 44.778 39.8004 45.6506 38.3512C46.5233 36.902 47.7013 35.7548 49.1848 34.9094C50.6684 34.0641 52.3264 33.4258 54.159 32.9945C55.9915 32.5632 57.859 32.2354 59.7614 32.0111C62.1699 31.7351 64.1246 31.5108 65.6256 31.3383C67.1266 31.1485 68.2174 30.8466 68.8981 30.4325C69.5787 30.0185 69.9191 29.3457 69.9191 28.4141V28.2329C69.9191 25.9729 69.2733 24.2218 67.9818 22.9797C66.7077 21.7375 64.8053 21.1165 62.2746 21.1165C59.6392 21.1165 59.6305 21.1165 56.0439 22.8503C52.4573 24.5841 36.4262 42.1385 35.8503 43.5359L32.6394 37.7819C33.512 35.3666 47.7188 20.6334 49.3943 19.1497C51.0872 17.6488 53.0332 16.5619 55.2323 15.8891C57.4314 15.199 59.7439 14.854 62.1699 14.854C63.7756 14.854 65.4773 15.0437 67.2749 15.4233C69.09 15.7856 70.783 16.4584 72.3538 17.4418C73.942 18.4251 75.2422 19.8312 76.2545 21.6599C77.2668 23.4714 77.7729 25.8263 77.7729 28.7246V55.1202H70.1285V49.6858H69.8143C69.3082 50.6864 68.549 51.6697 67.5367 52.6359C66.5244 53.602 65.2242 54.4042 63.636 55.0425C62.0477 55.6808 60.1454 56 57.9288 56ZM59.6305 49.7893C61.7947 49.7893 63.6447 49.3666 65.1806 48.5213C66.7339 47.6759 67.912 46.5718 68.7148 45.2089C69.5351 43.8287 69.9452 42.3537 69.9452 40.7837V35.6599C69.666 35.9359 69.1249 36.1947 68.3221 36.4362C67.5367 36.6605 66.6379 36.8589 65.6256 37.0314C64.6133 37.1867 63.6272 37.3333 62.6673 37.4714C61.7074 37.5921 60.9046 37.6956 60.2588 37.7819C58.7404 37.9717 57.3529 38.2908 56.0963 38.7394C54.8571 39.1879 53.8623 39.8349 53.1118 40.6802C52.3788 41.5083 52.0122 42.6125 52.0122 43.9926C52.0122 45.9076 52.7278 47.3567 54.159 48.3401C55.5901 49.3062 57.414 49.7893 59.6305 49.7893Z" fill="#1E6141"/>
<path d="M135.551 42.097L128.457 43.3392C128.457 43.3392 110.469 24.5669 109.823 23.756C109.195 22.9452 108.34 22.281 107.258 21.7634C106.176 21.2458 104.823 20.9871 103.2 20.9871C100.983 20.9871 99.1333 21.4787 97.6498 22.4621C96.1663 23.4282 95.4245 24.679 95.4245 26.2144C95.4245 27.5428 95.9219 28.6124 96.9167 29.4233C97.9115 30.2341 99.5172 30.8983 101.734 31.4159L108.122 32.8651C111.822 33.7104 114.579 35.0129 116.394 36.7726C118.209 38.5323 119.117 40.8182 119.117 43.6303C119.117 46.0111 118.419 48.1331 117.023 49.9963C115.644 51.8423 113.715 53.2914 111.237 54.3438C108.776 55.3962 105.922 55.9224 102.676 55.9224C98.1733 55.9224 94.4995 54.9735 91.6546 53.0758C88.8098 51.1608 70.8325 32.3986 70.1867 28.8792L77.7526 27.7406C78.2238 29.69 94.8518 46.7357 96.8905 48.2107C98.9293 49.6858 100.268 49.6858 102.624 49.6858C105.189 49.6858 107.24 49.1596 108.776 48.1072C110.312 47.0376 111.08 45.7351 111.08 44.1996C111.08 42.9575 110.609 41.9137 109.666 41.0684C108.741 40.223 107.319 39.5847 105.399 39.1534L98.5922 37.6784C94.8398 36.833 92.0648 35.4874 90.2671 33.6414C88.4869 31.7954 87.5968 29.4578 87.5968 26.6285C87.5968 24.2822 88.26 22.2292 89.5865 20.4695C90.9129 18.7098 92.7455 17.3383 95.0842 16.3549C97.4229 15.3543 100.102 14.854 103.121 14.854C107.467 14.854 110.888 15.7856 113.384 17.6488C115.879 19.4948 134.748 38.9917 135.551 42.097Z" fill="#1E6141"/>
<path d="M127.724 55.1202V15.3715H135.551V55.1202H127.724ZM131.677 9.23845C130.315 9.23845 129.146 8.7899 128.169 7.89279C127.209 6.97843 126.729 5.89156 126.729 4.63216C126.729 3.35551 127.209 2.26864 128.169 1.37153C129.146 0.457177 130.315 0 131.677 0C133.038 0 134.199 0.457177 135.159 1.37153C136.136 2.26864 136.625 3.35551 136.625 4.63216C136.625 5.89156 136.136 6.97843 135.159 7.89279C134.199 8.7899 133.038 9.23845 131.677 9.23845Z" fill="#1E6141"/>
<path d="M176.215 25.0758L169.12 26.3179C168.823 25.4208 168.352 24.5669 167.706 23.756C167.078 22.9452 166.223 22.281 165.141 21.7634C164.059 21.2458 162.706 20.9871 161.083 20.9871C158.866 20.9871 157.016 21.4787 155.533 22.4621C154.049 23.4282 153.307 24.679 153.307 26.2144C153.307 27.5428 153.805 28.6124 154.8 29.4233C155.795 30.2341 157.4 30.8983 159.617 31.4159L166.005 32.8651C169.705 33.7104 172.462 35.0129 174.277 36.7726C176.092 38.5323 177 40.8182 177 43.6303C177 46.0111 176.302 48.1331 174.906 49.9963C173.527 51.8423 171.598 53.2914 169.12 54.3438C166.659 55.3962 163.806 55.9224 160.559 55.9224C156.056 55.9224 152.382 54.9735 149.538 53.0758C146.693 51.1608 128.631 32.3152 127.985 28.7958L135.551 27.6571C136.022 29.6066 152.612 46.7357 154.774 48.2107C156.935 49.6858 158.151 49.6858 160.507 49.6858C163.072 49.6858 165.123 49.1596 166.659 48.1072C168.195 47.0376 168.963 45.7351 168.963 44.1996C168.963 42.9575 168.492 41.9137 167.549 41.0684C166.624 40.223 165.202 39.5847 163.282 39.1534L156.475 37.6784C152.723 36.833 149.948 35.4874 148.15 33.6414C146.37 31.7954 145.48 29.4578 145.48 26.6285C145.48 24.2822 146.143 22.2292 147.469 20.4695C148.796 18.7098 150.628 17.3383 152.967 16.3549C155.306 15.3543 157.985 14.854 161.004 14.854C165.35 14.854 168.771 15.7856 171.267 17.6488C173.762 19.4948 175.412 21.9704 176.215 25.0758Z" fill="#1E6141"/>
</svg>
