<svg width="269" height="241" viewBox="0 0 269 241" fill="none" xmlns="http://www.w3.org/2000/svg">
<path d="M187.45 138.323C209.439 151.019 241.525 126.693 253.244 106.396C263.01 89.4813 266.271 64.301 249.357 54.5353C227.368 41.84 195.281 66.1652 183.562 86.4627C173.797 103.377 170.535 128.558 187.45 138.323ZM123.174 101.214C140.089 110.979 160.265 95.5648 170.031 78.6502C182.726 56.6612 187.749 16.711 165.76 4.01568C148.846 -5.74996 128.67 9.66472 118.904 26.5793C104.517 47.5917 99.4941 87.5419 123.174 101.214ZM258.108 156.565C236.119 143.87 203.318 165.527 190.622 187.516C181.833 202.739 179.81 221.868 195.033 230.657C217.022 243.353 249.823 221.695 262.519 199.707C271.308 184.483 271.64 164.377 258.108 156.565ZM80.6777 124.039C93.373 102.05 94.0366 61.8383 73.7391 50.1195C58.516 41.3304 42.9611 52.6473 34.172 67.8704C21.4766 89.8594 20.8131 130.071 41.1106 141.79C56.3337 150.579 71.8886 139.262 80.6777 124.039ZM136.757 151.906C102.928 132.375 26.0089 160.134 4.52449 197.346C-5.24115 214.261 3.66937 226.171 17.201 233.984C37.4985 245.703 60.5342 240.96 79.1402 251.702C96.0548 261.468 103.465 283.789 122.071 294.531C135.603 302.343 152.779 307.749 163.522 289.143C185.006 251.931 170.587 171.437 136.757 151.906Z" fill="#323643" fill-opacity="0.05"/>
</svg>
