<svg width="236" height="232" viewBox="0 0 236 232" fill="none" xmlns="http://www.w3.org/2000/svg">
<path d="M187.45 68.3232C209.439 81.0186 241.525 56.6934 253.244 36.3959C263.01 19.4813 266.271 -5.69903 249.357 -15.4647C227.368 -28.16 195.281 -3.83481 183.562 16.4627C173.797 33.3773 170.535 58.5576 187.45 68.3232ZM123.174 31.2138C140.089 40.9794 160.265 25.5648 170.031 8.65018C182.726 -13.3388 187.749 -53.289 165.76 -65.9843C148.846 -75.75 128.67 -60.3353 118.904 -43.4207C104.517 -22.4083 99.4941 17.5419 123.174 31.2138ZM258.108 86.5649C236.119 73.8696 203.318 95.5268 190.622 117.516C181.833 132.739 179.81 151.868 195.033 160.657C217.022 173.353 249.823 151.695 262.519 129.707C271.308 114.483 271.64 94.3775 258.108 86.5649ZM80.6777 54.0391C93.373 32.0501 94.0366 -8.16174 73.7391 -19.8805C58.516 -28.6696 42.9611 -17.3527 34.172 -2.1296C21.4766 19.8594 20.8131 60.0713 41.1106 71.79C56.3337 80.5791 71.8886 69.2622 80.6777 54.0391ZM136.757 81.9062C102.928 62.3749 26.0089 90.1344 4.52449 127.346C-5.24115 144.261 3.66937 156.171 17.201 163.984C37.4985 175.703 60.5342 170.96 79.1402 181.702C96.0548 191.468 103.465 213.789 122.071 224.531C135.603 232.343 152.779 237.749 163.522 219.143C185.006 181.931 170.587 101.437 136.757 81.9062Z" fill="#323643" fill-opacity="0.05"/>
</svg>
